<mxfile host="app.diagrams.net" agent="Mozilla/5.0 (Windows NT 10.0; Win64; x64) AppleWebKit/537.36 (KHTML, like Gecko) Chrome/132.0.0.0 Safari/537.36" version="26.0.10">
  <diagram name="Page-1" id="E24ZdlD1vGsDDKgUxIw4">
    <mxGraphModel dx="1834" dy="788" grid="0" gridSize="10" guides="1" tooltips="1" connect="1" arrows="1" fold="1" page="0" pageScale="1" pageWidth="827" pageHeight="1169" math="0" shadow="0">
      <root>
        <mxCell id="0" />
        <mxCell id="1" parent="0" />
        <mxCell id="ZopBdSG2hJLMDGmNPnkS-1" value="&lt;b&gt;Systéme de traitement&lt;/b&gt;" style="ellipse;whiteSpace=wrap;html=1;" vertex="1" parent="1">
          <mxGeometry x="158" y="489" width="143" height="93" as="geometry" />
        </mxCell>
        <mxCell id="ZopBdSG2hJLMDGmNPnkS-2" value="1: Receptionner les données météorologiques" style="ellipse;whiteSpace=wrap;html=1;" vertex="1" parent="1">
          <mxGeometry x="-51" y="433" width="120" height="80" as="geometry" />
        </mxCell>
        <mxCell id="ZopBdSG2hJLMDGmNPnkS-4" value="2: Receptionner la resistance du terrain" style="ellipse;whiteSpace=wrap;html=1;" vertex="1" parent="1">
          <mxGeometry x="-47" y="636" width="120" height="80" as="geometry" />
        </mxCell>
        <mxCell id="ZopBdSG2hJLMDGmNPnkS-5" value="3: Archiver les données" style="ellipse;whiteSpace=wrap;html=1;" vertex="1" parent="1">
          <mxGeometry x="372" y="639" width="120" height="80" as="geometry" />
        </mxCell>
        <mxCell id="ZopBdSG2hJLMDGmNPnkS-6" value="4: Consulter" style="ellipse;whiteSpace=wrap;html=1;" vertex="1" parent="1">
          <mxGeometry x="402" y="426" width="120" height="80" as="geometry" />
        </mxCell>
        <mxCell id="ZopBdSG2hJLMDGmNPnkS-7" value="5: Analyser les données" style="ellipse;whiteSpace=wrap;html=1;" vertex="1" parent="1">
          <mxGeometry x="186" y="366" width="120" height="80" as="geometry" />
        </mxCell>
        <mxCell id="ZopBdSG2hJLMDGmNPnkS-13" value="" style="endArrow=none;html=1;rounded=0;fontSize=12;startSize=8;endSize=8;curved=1;exitX=0.067;exitY=0.25;exitDx=0;exitDy=0;exitPerimeter=0;entryX=0.992;entryY=0.588;entryDx=0;entryDy=0;entryPerimeter=0;strokeWidth=2;" edge="1" parent="1" source="ZopBdSG2hJLMDGmNPnkS-1" target="ZopBdSG2hJLMDGmNPnkS-2">
          <mxGeometry width="50" height="50" relative="1" as="geometry">
            <mxPoint x="138" y="507" as="sourcePoint" />
            <mxPoint x="188" y="457" as="targetPoint" />
          </mxGeometry>
        </mxCell>
        <mxCell id="ZopBdSG2hJLMDGmNPnkS-14" value="" style="endArrow=none;html=1;rounded=0;fontSize=12;startSize=8;endSize=8;curved=1;exitX=0.5;exitY=0;exitDx=0;exitDy=0;entryX=0.417;entryY=0.988;entryDx=0;entryDy=0;entryPerimeter=0;strokeWidth=2;" edge="1" parent="1" source="ZopBdSG2hJLMDGmNPnkS-1" target="ZopBdSG2hJLMDGmNPnkS-7">
          <mxGeometry width="50" height="50" relative="1" as="geometry">
            <mxPoint x="138" y="507" as="sourcePoint" />
            <mxPoint x="188" y="457" as="targetPoint" />
          </mxGeometry>
        </mxCell>
        <mxCell id="ZopBdSG2hJLMDGmNPnkS-15" value="" style="endArrow=none;html=1;rounded=0;fontSize=12;startSize=8;endSize=8;curved=1;entryX=0;entryY=1;entryDx=0;entryDy=0;strokeWidth=2;" edge="1" parent="1" source="ZopBdSG2hJLMDGmNPnkS-4" target="ZopBdSG2hJLMDGmNPnkS-1">
          <mxGeometry width="50" height="50" relative="1" as="geometry">
            <mxPoint x="115" y="632" as="sourcePoint" />
            <mxPoint x="165" y="582" as="targetPoint" />
          </mxGeometry>
        </mxCell>
        <mxCell id="ZopBdSG2hJLMDGmNPnkS-16" value="" style="endArrow=none;html=1;rounded=0;fontSize=12;startSize=8;endSize=8;curved=1;entryX=0.075;entryY=0.263;entryDx=0;entryDy=0;entryPerimeter=0;exitX=1;exitY=1;exitDx=0;exitDy=0;strokeWidth=2;" edge="1" parent="1" source="ZopBdSG2hJLMDGmNPnkS-1" target="ZopBdSG2hJLMDGmNPnkS-5">
          <mxGeometry width="50" height="50" relative="1" as="geometry">
            <mxPoint x="301" y="724" as="sourcePoint" />
            <mxPoint x="351" y="674" as="targetPoint" />
          </mxGeometry>
        </mxCell>
        <mxCell id="ZopBdSG2hJLMDGmNPnkS-17" value="" style="endArrow=none;html=1;rounded=0;fontSize=12;startSize=8;endSize=8;curved=1;entryX=0.058;entryY=0.75;entryDx=0;entryDy=0;entryPerimeter=0;strokeWidth=2;" edge="1" parent="1" source="ZopBdSG2hJLMDGmNPnkS-1" target="ZopBdSG2hJLMDGmNPnkS-6">
          <mxGeometry width="50" height="50" relative="1" as="geometry">
            <mxPoint x="138" y="507" as="sourcePoint" />
            <mxPoint x="188" y="457" as="targetPoint" />
          </mxGeometry>
        </mxCell>
      </root>
    </mxGraphModel>
  </diagram>
</mxfile>
